# xmcd CD database file generated by Grip 3.2.0
# 
# Track frame offsets:
#       183
#       16588
#       33818
#       57615
#       73378
#       89365
#       104405
#       116340
#       138398
#       149310
#       167175
#       186600
#       202950
#       215268
#       224295
#       238370
#       251675
#       268385
# 
# Disc length: 3715 seconds
# 
# Revision: 2
# Processed by: cddbd v1.5.1PL2 Copyright (c) Steve Scherf et al.
# Submitted via: Grip 3.2.0
# 
DISCID=1d0e8112
DTITLE=Memphis Slim - Worried Life
DYEAR=1900
DGENRE=Blues
TTITLE0=Baby Gone
TTITLE1=Cow Cow Blues
TTITLE2=Miss Ida B.
TTITLE3=Forty-four Blues
TTITLE4=Trouble in My Mind
TTITLE5=Worried Life Blues
TTITLE6=Don't Want My Rooster Crowin' After The Sun Goes Down
TTITLE7=Lonesome In My Bedroom
TTITLE8=Diggin' My Potatoes
TTITLE9=In The Evening
TTITLE10=Red Haired Boogie
TTITLE11=Blue And Disgusted
TTITLE12=New Key To The Highway
TTITLE13=I'd Take Her To Chicago
TTITLE14=Harlem Bound
TTITLE15=El Capitan
TTITLE16=I Just Landed In Your Town
TTITLE17=John Henry
EXTD=
EXTT0=
EXTT1=
EXTT2=
EXTT3=
EXTT4=
EXTT5=
EXTT6=
EXTT7=
EXTT8=
EXTT9=
EXTT10=
EXTT11=
EXTT12=
EXTT13=
EXTT14=
EXTT15=
EXTT16=
EXTT17=
PLAYORDER=
